<?xml version="1.0" standalone="no"?>
<!DOCTYPE svg PUBLIC "-//W3C//DTD SVG 20010904//EN"
 "http://www.w3.org/TR/2001/REC-SVG-20010904/DTD/svg10.dtd">
<svg version="1.0" xmlns="http://www.w3.org/2000/svg"
 width="512.000000pt" height="512.000000pt" viewBox="0 0 512.000000 512.000000"
 preserveAspectRatio="xMidYMid meet">
<metadata>
Created by potrace 1.14, written by Peter Selinger 2001-2017
</metadata>
<g transform="translate(0.000000,512.000000) scale(0.100000,-0.100000)"
fill="#000000" stroke="none">
<path d="M2038 4259 c-257 -34 -489 -224 -574 -469 -87 -250 -28 -527 154
-722 131 -140 316 -218 516 -218 119 0 201 18 299 64 179 83 306 226 373 418
35 100 44 276 20 380 -85 357 -428 596 -788 547z m217 -223 c77 -21 116 -41
183 -91 108 -81 178 -213 188 -354 25 -333 -290 -599 -611 -516 -374 98 -502
558 -230 830 120 120 313 174 470 131z"/>
<path d="M1355 2544 c-96 -19 -236 -90 -312 -159 -80 -72 -149 -176 -187 -284
l-31 -86 -3 -368 -3 -368 34 -34 35 -35 620 0 c379 0 631 4 646 10 68 26 83
122 26 173 l-30 27 -560 0 -560 0 0 249 c0 136 5 273 10 302 35 187 195 339
386 369 47 7 297 10 754 8 682 -3 685 -4 745 -26 74 -28 146 -77 203 -137 38
-41 47 -45 88 -45 62 0 104 40 104 98 0 76 -107 182 -255 252 -146 70 -149 70
-937 69 -553 -1 -718 -4 -773 -15z"/>
<path d="M3403 1980 c-12 -5 -29 -20 -38 -34 -16 -24 -235 -949 -235 -991 0
-36 36 -82 74 -95 31 -10 42 -9 74 7 20 10 42 29 49 43 18 38 223 936 223 976
0 46 -14 70 -50 89 -32 17 -64 18 -97 5z"/>
<path d="M2842 1839 c-28 -11 -398 -343 -412 -369 -17 -31 -11 -75 13 -108 20
-29 302 -287 371 -340 56 -43 134 -22 162 43 25 61 8 88 -146 225 -77 69 -140
128 -140 131 0 4 61 62 136 130 79 71 142 136 150 154 22 53 -5 116 -58 134
-36 13 -45 13 -76 0z"/>
<path d="M3764 1840 c-31 -12 -64 -59 -64 -91 0 -50 20 -76 162 -201 l139
-123 -93 -85 c-184 -167 -208 -194 -208 -229 0 -39 23 -87 49 -101 11 -5 38
-10 60 -10 42 0 55 10 340 269 168 153 167 157 -94 391 -108 96 -204 178 -213
182 -23 9 -53 8 -78 -2z"/>
</g>
</svg>
